<mxfile host="app.diagrams.net" agent="Mozilla/5.0 (Windows NT 10.0; Win64; x64) AppleWebKit/537.36 (KHTML, like Gecko) Chrome/133.0.0.0 Safari/537.36" version="26.0.14">
  <diagram name="Página-1" id="QjNoXr49TitPGwUjglOf">
    <mxGraphModel dx="1746" dy="897" grid="1" gridSize="10" guides="1" tooltips="1" connect="1" arrows="1" fold="1" page="1" pageScale="1" pageWidth="1169" pageHeight="827" math="0" shadow="0">
      <root>
        <mxCell id="0" />
        <mxCell id="1" parent="0" />
        <mxCell id="bZmUocFZ0jDwj0Lv4Roo-6" style="edgeStyle=orthogonalEdgeStyle;rounded=0;orthogonalLoop=1;jettySize=auto;html=1;strokeWidth=3;" edge="1" parent="1" source="bZmUocFZ0jDwj0Lv4Roo-4" target="bZmUocFZ0jDwj0Lv4Roo-5">
          <mxGeometry relative="1" as="geometry" />
        </mxCell>
        <mxCell id="bZmUocFZ0jDwj0Lv4Roo-4" value="PEP" style="rounded=0;whiteSpace=wrap;html=1;fontFamily=Verdana;fontSize=26;fontStyle=1;fillColor=#f5f5f5;fontColor=#333333;strokeColor=#666666;strokeWidth=2;" vertex="1" parent="1">
          <mxGeometry x="530" y="50" width="120" height="60" as="geometry" />
        </mxCell>
        <mxCell id="bZmUocFZ0jDwj0Lv4Roo-5" value="&lt;ul&gt;&lt;li&gt;&lt;font face=&quot;Verdana&quot;&gt;Guía para el análisis de los PEP. basado en: Shulman, 1987; Koehler y Mishra, 2009; Zabalza, 2007; Coll et al.,1992 (9 Ítem)&lt;/font&gt;&lt;/li&gt;&lt;li&gt;&lt;font face=&quot;Verdana&quot;&gt;Peso en porcentaje de los contenidos disciplinares, pedagógicos, didácticos, y de práctica.&amp;nbsp;&lt;/font&gt;&lt;/li&gt;&lt;li&gt;&lt;font face=&quot;Verdana&quot;&gt;Contexto Población estudiantil&amp;nbsp;&lt;/font&gt;&lt;/li&gt;&lt;li&gt;&lt;font face=&quot;Verdana&quot;&gt;Metodologías de enseñanza&lt;/font&gt;&lt;/li&gt;&lt;li&gt;&lt;font face=&quot;Verdana&quot;&gt;Perfil de formación&lt;/font&gt;&lt;/li&gt;&lt;/ul&gt;" style="rounded=1;whiteSpace=wrap;html=1;align=left;fillColor=#f5f5f5;fontColor=#333333;strokeColor=#666666;strokeWidth=2;fontSize=25;" vertex="1" parent="1">
          <mxGeometry x="5" y="160" width="1170" height="220" as="geometry" />
        </mxCell>
        <mxCell id="bZmUocFZ0jDwj0Lv4Roo-7" style="edgeStyle=orthogonalEdgeStyle;rounded=0;orthogonalLoop=1;jettySize=auto;html=1;strokeWidth=3;" edge="1" parent="1" source="bZmUocFZ0jDwj0Lv4Roo-8" target="bZmUocFZ0jDwj0Lv4Roo-9">
          <mxGeometry relative="1" as="geometry" />
        </mxCell>
        <mxCell id="bZmUocFZ0jDwj0Lv4Roo-8" value="Microcurrículos" style="rounded=0;whiteSpace=wrap;html=1;fontFamily=Verdana;fontSize=26;fontStyle=1;fillColor=#f9f7ed;strokeColor=#36393d;strokeWidth=2;" vertex="1" parent="1">
          <mxGeometry x="467.5" y="390" width="247.5" height="60" as="geometry" />
        </mxCell>
        <mxCell id="bZmUocFZ0jDwj0Lv4Roo-20" style="edgeStyle=orthogonalEdgeStyle;rounded=0;orthogonalLoop=1;jettySize=auto;html=1;entryX=0.5;entryY=0;entryDx=0;entryDy=0;strokeWidth=3;" edge="1" parent="1" source="bZmUocFZ0jDwj0Lv4Roo-9" target="bZmUocFZ0jDwj0Lv4Roo-10">
          <mxGeometry relative="1" as="geometry" />
        </mxCell>
        <mxCell id="bZmUocFZ0jDwj0Lv4Roo-21" style="edgeStyle=orthogonalEdgeStyle;rounded=0;orthogonalLoop=1;jettySize=auto;html=1;entryX=0.5;entryY=0;entryDx=0;entryDy=0;strokeWidth=3;" edge="1" parent="1" source="bZmUocFZ0jDwj0Lv4Roo-9" target="bZmUocFZ0jDwj0Lv4Roo-11">
          <mxGeometry relative="1" as="geometry" />
        </mxCell>
        <mxCell id="bZmUocFZ0jDwj0Lv4Roo-9" value="&lt;ul&gt;&lt;li&gt;Rejilla&amp;nbsp; de análisis para la selección de curso&lt;/li&gt;&lt;/ul&gt;&lt;ul&gt;&lt;li&gt;Rejilla de análisis de micro- currículos para la estructura atómica&amp;nbsp; (7 ítem)&lt;/li&gt;&lt;/ul&gt;" style="rounded=1;whiteSpace=wrap;html=1;align=left;fillColor=#f9f7ed;strokeColor=#36393d;strokeWidth=2;fontFamily=Verdana;fontSize=25;" vertex="1" parent="1">
          <mxGeometry x="10" y="500" width="1160" height="130" as="geometry" />
        </mxCell>
        <mxCell id="bZmUocFZ0jDwj0Lv4Roo-10" value="¿Se diferencia claramente que los modelos de Thomson y Rutherford son clásicos, Bohr y Sommerfeld son pre-cuánticos y Schrödinger es cuántico?" style="rounded=1;whiteSpace=wrap;html=1;fontFamily=Verdana;fontSize=25;fillColor=#f9f7ed;strokeColor=#36393d;" vertex="1" parent="1">
          <mxGeometry x="10" y="680" width="590" height="140" as="geometry" />
        </mxCell>
        <mxCell id="bZmUocFZ0jDwj0Lv4Roo-11" value="&lt;span style=&quot;text-align: left;&quot;&gt;¿ Introduce las relaciones de indeterminación ?&lt;/span&gt;" style="rounded=1;whiteSpace=wrap;html=1;fontFamily=Verdana;fontSize=25;fillColor=#f9f7ed;strokeColor=#36393d;fontColor=#000000;" vertex="1" parent="1">
          <mxGeometry x="650" y="680" width="520" height="140" as="geometry" />
        </mxCell>
      </root>
    </mxGraphModel>
  </diagram>
</mxfile>
